<svg width="30" height="30" viewBox="0 0 30 30" fill="none" xmlns="http://www.w3.org/2000/svg">
<path fill-rule="evenodd" clip-rule="evenodd" d="M15 2.5C8.09646 2.5 2.5 8.09639 2.5 15C2.5 21.9035 8.09646 27.5 15 27.5C21.9036 27.5 27.5 21.9035 27.5 15C27.5 8.09639 21.9036 2.5 15 2.5ZM15 25C9.48601 25 5 20.514 5 15C5 9.48601 9.48601 5 15 5C20.5141 5 25 9.48601 25 15C25 20.514 20.5141 25 15 25ZM16.5652 10C16.5652 10.9063 15.9054 11.5625 15.0127 11.5625C14.0839 11.5625 13.4402 10.9063 13.4402 9.98266C13.4402 9.09494 14.1013 8.4375 15.0127 8.4375C15.9054 8.4375 16.5652 9.09494 16.5652 10ZM13.7527 13.75H16.2527V21.25H13.7527V13.75Z" fill="#8A8A8A"/>
</svg>
