<svg width="30" height="30" viewBox="0 0 30 30" fill="none" xmlns="http://www.w3.org/2000/svg">
<path d="M15 13.125C13.7639 13.125 12.5555 12.7584 11.5277 12.0717C10.4999 11.3849 9.6988 10.4088 9.22576 9.26677C8.75271 8.12474 8.62894 6.86807 8.87009 5.65569C9.11125 4.44331 9.70651 3.32966 10.5806 2.45559C11.4547 1.58151 12.5683 0.986252 13.7807 0.745095C14.9931 0.503937 16.2497 0.627708 17.3918 1.10076C18.5338 1.5738 19.5099 2.37488 20.1967 3.40269C20.8834 4.4305 21.25 5.63887 21.25 6.875C21.25 8.53261 20.5915 10.1223 19.4194 11.2944C18.2473 12.4665 16.6576 13.125 15 13.125ZM15 3.125C14.2583 3.125 13.5333 3.34494 12.9166 3.75699C12.2999 4.16905 11.8193 4.75472 11.5355 5.43994C11.2516 6.12516 11.1774 6.87916 11.3221 7.60659C11.4668 8.33402 11.8239 9.00221 12.3484 9.52665C12.8728 10.0511 13.541 10.4083 14.2684 10.5529C14.9958 10.6976 15.7498 10.6234 16.4351 10.3396C17.1203 10.0557 17.706 9.57508 18.118 8.95839C18.5301 8.34171 18.75 7.61668 18.75 6.875C18.75 5.88044 18.3549 4.92661 17.6517 4.22335C16.9484 3.52009 15.9946 3.125 15 3.125Z" fill="#8A8A8A"/>
<path d="M26.25 29.375H3.75C3.41848 29.375 3.10054 29.2433 2.86612 29.0089C2.6317 28.7745 2.5 28.4565 2.5 28.125V24.375C2.5 21.7228 3.55357 19.1793 5.42893 17.3039C7.3043 15.4286 9.84784 14.375 12.5 14.375H17.5C20.1522 14.375 22.6957 15.4286 24.5711 17.3039C26.4464 19.1793 27.5 21.7228 27.5 24.375V28.125C27.5 28.4565 27.3683 28.7745 27.1339 29.0089C26.8995 29.2433 26.5815 29.375 26.25 29.375ZM5 26.875H25V24.375C25 22.3859 24.2098 20.4782 22.8033 19.0717C21.3968 17.6652 19.4891 16.875 17.5 16.875H12.5C10.5109 16.875 8.60322 17.6652 7.1967 19.0717C5.79018 20.4782 5 22.3859 5 24.375V26.875Z" fill="#8A8A8A"/>
</svg>
