<svg width="130" height="130" viewBox="0 0 130 130" fill="none" xmlns="http://www.w3.org/2000/svg">
<path d="M73.8227 110.889L70.8863 115.85C68.269 120.272 61.731 120.272 59.1137 115.85L56.1773 110.889C53.8998 107.041 52.761 105.117 50.9318 104.053C49.1026 102.989 46.7996 102.95 42.1936 102.871C35.3937 102.753 31.129 102.337 27.5523 100.855C20.9161 98.1061 15.6437 92.8341 12.8949 86.1976C10.8333 81.2207 10.8333 74.9109 10.8333 62.2917V56.875C10.8333 39.1439 10.8333 30.2783 14.8243 23.7657C17.0575 20.1214 20.1215 17.0575 23.7657 14.8243C30.2784 10.8333 39.1439 10.8333 56.875 10.8333H73.125C90.8559 10.8333 99.7214 10.8333 106.234 14.8243C109.879 17.0575 112.942 20.1214 115.176 23.7657C119.167 30.2783 119.167 39.1439 119.167 56.875V62.2917C119.167 74.9109 119.167 81.2207 117.105 86.1976C114.356 92.8341 109.084 98.1061 102.448 100.855C98.871 102.337 94.6064 102.753 87.8063 102.871C83.2 102.95 80.8974 102.989 79.0682 104.053C77.239 105.117 76.0998 107.041 73.8227 110.889Z" fill="white"/>
<circle cx="42.0875" cy="39.4875" r="8.125" fill="#1ACEDA"/>
<circle cx="42.0875" cy="62.5625" r="8.125" fill="#1ACEDA"/>
<circle cx="65" cy="39.4875" r="8.125" fill="#1ACEDA"/>
<circle cx="65" cy="62.5625" r="8.125" fill="#1ACEDA"/>
<circle cx="65" cy="85.8" r="8.125" fill="#1ACEDA"/>
<circle cx="88.5625" cy="39.4875" r="8.125" fill="#1ACEDA"/>
<circle cx="88.5625" cy="62.5625" r="8.125" fill="#1ACEDA"/>
</svg>
