<svg width="40" height="40" viewBox="0 0 40 40" fill="none" xmlns="http://www.w3.org/2000/svg">
<path opacity="0.5" d="M16.2963 35H23.7037C28.9055 35 31.5064 35 33.3747 33.7743C34.1834 33.2437 34.8779 32.5618 35.4184 31.7678C36.6667 29.9335 36.6667 27.3798 36.6667 22.2727C36.6667 17.1657 36.6667 14.612 35.4184 12.7777C34.8779 11.9836 34.1834 11.3017 33.3747 10.7711C32.174 9.98355 30.6712 9.70205 28.37 9.60143C27.2719 9.60143 26.3265 8.78447 26.1112 7.72727C25.788 6.14148 24.3699 5 22.7229 5H17.2772C15.6301 5 14.212 6.14148 13.8889 7.72727C13.6736 8.78447 12.7281 9.60143 11.63 9.60143C9.32892 9.70205 7.82596 9.98355 6.62544 10.7711C5.81662 11.3017 5.12217 11.9836 4.58174 12.7777C3.33337 14.612 3.33337 17.1657 3.33337 22.2727C3.33337 27.3798 3.33337 29.9335 4.58174 31.7678C5.12217 32.5618 5.81662 33.2437 6.62544 33.7743C8.49377 35 11.0946 35 16.2963 35Z" fill="#8A8A8A"/>
<path d="M29.2603 15.4541C28.4933 15.4541 27.8715 16.0646 27.8715 16.8177C27.8715 17.5708 28.4933 18.1813 29.2603 18.1813H31.1121C31.8793 18.1813 32.5011 17.5708 32.5011 16.8177C32.5011 16.0646 31.8793 15.4541 31.1121 15.4541H29.2603Z" fill="white"/>
<path fill-rule="evenodd" clip-rule="evenodd" d="M20.0012 15.4541C16.1658 15.4541 13.0566 18.5067 13.0566 22.2723C13.0566 26.0378 16.1658 29.0905 20.0012 29.0905C23.8363 29.0905 26.9455 26.0378 26.9455 22.2723C26.9455 18.5067 23.8363 15.4541 20.0012 15.4541ZM20.0012 18.1813C17.6998 18.1813 15.8344 20.013 15.8344 22.2723C15.8344 24.5317 17.6998 26.3632 20.0012 26.3632C22.3023 26.3632 24.1678 24.5317 24.1678 22.2723C24.1678 20.013 22.3023 18.1813 20.0012 18.1813Z" fill="white"/>
</svg>
