<svg width="40" height="40" viewBox="0 0 40 40" fill="none" xmlns="http://www.w3.org/2000/svg">
<g clip-path="url(#clip0_116_83)">
<path d="M40 0H0V40H40V0Z" fill="white"/>
<path fill-rule="evenodd" clip-rule="evenodd" d="M3.33337 20C3.33337 10.7953 10.7953 3.33334 20 3.33334C29.2047 3.33334 36.6667 10.7953 36.6667 20C36.6667 29.2047 29.2047 36.6667 20 36.6667C10.7953 36.6667 3.33337 29.2047 3.33337 20ZM15 19.1667C15 16.8655 16.8655 15 19.1667 15C21.4679 15 23.3334 16.8655 23.3334 19.1667C23.3334 21.4678 21.4679 23.3333 19.1667 23.3333C16.8655 23.3333 15 21.4678 15 19.1667ZM19.1667 11.6667C15.0246 11.6667 11.6667 15.0245 11.6667 19.1667C11.6667 23.3088 15.0246 26.6667 19.1667 26.6667C20.6342 26.6667 22.0034 26.2452 23.1595 25.5167L25.4882 27.8452C26.139 28.496 27.1944 28.496 27.8452 27.8452C28.496 27.1943 28.496 26.139 27.8452 25.4882L25.5167 23.1595C26.2452 22.0033 26.6667 20.6342 26.6667 19.1667C26.6667 15.0245 23.3089 11.6667 19.1667 11.6667Z" fill="#C5C2C2"/>
</g>
<defs>
<clipPath id="clip0_116_83">
<rect width="40" height="40" fill="white"/>
</clipPath>
</defs>
</svg>
