<svg width="30" height="30" viewBox="0 0 30 30" fill="none" xmlns="http://www.w3.org/2000/svg">
<g clip-path="url(#clip0_137_803)">
<path d="M9.375 13.125C10.4105 13.125 11.25 12.2855 11.25 11.25C11.25 10.2145 10.4105 9.375 9.375 9.375C8.33947 9.375 7.5 10.2145 7.5 11.25C7.5 12.2855 8.33947 13.125 9.375 13.125Z" fill="#8A8A8A"/>
<path d="M15 10.3125C16.0355 10.3125 16.875 9.47303 16.875 8.4375C16.875 7.40197 16.0355 6.5625 15 6.5625C13.9645 6.5625 13.125 7.40197 13.125 8.4375C13.125 9.47303 13.9645 10.3125 15 10.3125Z" fill="#8A8A8A"/>
<path d="M20.625 13.125C21.6605 13.125 22.5 12.2855 22.5 11.25C22.5 10.2145 21.6605 9.375 20.625 9.375C19.5895 9.375 18.75 10.2145 18.75 11.25C18.75 12.2855 19.5895 13.125 20.625 13.125Z" fill="#8A8A8A"/>
<path d="M21.5625 18.75C22.598 18.75 23.4375 17.9105 23.4375 16.875C23.4375 15.8395 22.598 15 21.5625 15C20.527 15 19.6875 15.8395 19.6875 16.875C19.6875 17.9105 20.527 18.75 21.5625 18.75Z" fill="#8A8A8A"/>
<path d="M17.8125 23.4375C18.848 23.4375 19.6875 22.598 19.6875 21.5625C19.6875 20.527 18.848 19.6875 17.8125 19.6875C16.777 19.6875 15.9375 20.527 15.9375 21.5625C15.9375 22.598 16.777 23.4375 17.8125 23.4375Z" fill="#8A8A8A"/>
<path d="M15.5063 1.875C13.7405 1.80684 11.9792 2.09594 10.3279 2.72494C8.67663 3.35395 7.16935 4.30993 5.89645 5.53555C4.62355 6.76118 3.61125 8.23121 2.92022 9.85753C2.2292 11.4839 1.87369 13.233 1.875 15C1.87496 15.695 2.03522 16.3806 2.34333 17.0036C2.65144 17.6266 3.09909 18.17 3.65147 18.5918C4.20385 19.0136 4.84607 19.3023 5.52819 19.4354C6.21031 19.5685 6.91395 19.5425 7.58438 19.3594L8.63438 19.0688C9.05208 18.9547 9.49046 18.9387 9.91537 19.0219C10.3403 19.1051 10.7403 19.2852 11.0841 19.5484C11.428 19.8115 11.7065 20.1504 11.8978 20.5388C12.0892 20.9272 12.1884 21.3545 12.1875 21.7875V25.3125C12.1875 26.0584 12.4838 26.7738 13.0113 27.3012C13.5387 27.8287 14.2541 28.125 15 28.125C16.767 28.1263 18.5162 27.7708 20.1425 27.0798C21.7688 26.3888 23.2388 25.3765 24.4645 24.1036C25.6901 22.8307 26.6461 21.3234 27.2751 19.6721C27.9041 18.0208 28.1932 16.2595 28.125 14.4938C27.989 11.1906 26.6158 8.05944 24.2782 5.7218C21.9406 3.38416 18.8094 2.01103 15.5063 1.875ZM23.1094 22.7906C22.0626 23.8866 20.804 24.7584 19.4099 25.3531C18.0159 25.9478 16.5156 26.2529 15 26.25C14.7514 26.25 14.5129 26.1512 14.3371 25.9754C14.1613 25.7996 14.0625 25.5611 14.0625 25.3125V21.7875C14.0625 20.5443 13.5686 19.352 12.6896 18.4729C11.8105 17.5939 10.6182 17.1 9.375 17.1C8.95374 17.1007 8.53444 17.1575 8.12813 17.2688L7.07813 17.5594C6.68595 17.6645 6.27484 17.6778 5.87667 17.5984C5.47849 17.519 5.10396 17.349 4.78211 17.1015C4.46026 16.854 4.19974 16.5356 4.02075 16.1712C3.84177 15.8068 3.74912 15.406 3.75 15C3.74884 13.4848 4.05377 11.985 4.64649 10.5905C5.2392 9.1961 6.1075 7.93575 7.19928 6.88512C8.29106 5.83449 9.58382 5.01523 11 4.4765C12.4162 3.93776 13.9266 3.69066 15.4406 3.75C18.2599 3.89684 20.9248 5.08281 22.921 7.07902C24.9172 9.07523 26.1032 11.7401 26.25 14.5594C26.3145 16.0743 26.0693 17.5866 25.5293 19.0035C24.9893 20.4204 24.1658 21.7123 23.1094 22.8V22.7906Z" fill="#8A8A8A"/>
</g>
<defs>
<clipPath id="clip0_137_803">
<rect width="30" height="30" fill="white"/>
</clipPath>
</defs>
</svg>
