<svg width="20" height="20" viewBox="0 0 20 20" fill="none" xmlns="http://www.w3.org/2000/svg">
<path d="M8.47656 5.07343C8.23242 4.82928 7.83672 4.82928 7.59258 5.07343L3.10977 9.55624C3.09453 9.57147 3.08008 9.58749 3.06641 9.60428C3.06211 9.60936 3.05859 9.61483 3.0543 9.6203C3.04609 9.63124 3.03789 9.64178 3.03008 9.65311C3.02461 9.66132 3.01992 9.66991 3.01484 9.67811C3.00937 9.6871 3.00391 9.69608 2.99883 9.70546C2.99375 9.71483 2.98945 9.72421 2.98516 9.73397C2.98086 9.74296 2.97656 9.75155 2.97266 9.76053C2.96836 9.77069 2.96523 9.78085 2.96172 9.791C2.95859 9.79999 2.95508 9.80897 2.95234 9.81796C2.94883 9.82928 2.94648 9.84061 2.94375 9.85155C2.9418 9.86014 2.93945 9.86835 2.9375 9.87694C2.93437 9.89178 2.93242 9.90663 2.93086 9.92147C2.93008 9.92694 2.9293 9.93202 2.92852 9.93749C2.92422 9.97928 2.92422 10.0215 2.92852 10.0633C2.92891 10.0656 2.9293 10.068 2.92969 10.0703C2.93164 10.0883 2.93437 10.1062 2.93789 10.1238C2.93906 10.1289 2.94062 10.134 2.9418 10.1391C2.94531 10.1539 2.94883 10.1687 2.95312 10.1832C2.95469 10.1883 2.95664 10.1933 2.95859 10.1988C2.96328 10.2129 2.96836 10.2273 2.97422 10.2414C2.97617 10.2457 2.97812 10.2496 2.98008 10.2539C2.98672 10.2683 2.99336 10.2828 3.00078 10.2969C3.00234 10.2996 3.0043 10.3023 3.00586 10.3051C3.01406 10.3199 3.02305 10.3348 3.03242 10.3492C3.0332 10.3504 3.03398 10.3516 3.03477 10.3527C3.05625 10.3844 3.08086 10.4144 3.10859 10.4422L7.59336 14.9269C7.71523 15.0488 7.87539 15.1101 8.03516 15.1101C8.19492 15.1101 8.35508 15.0492 8.47695 14.9269C8.72109 14.6828 8.72109 14.2871 8.47695 14.043L5.05898 10.625H16.4504C16.7957 10.625 17.0754 10.3453 17.0754 9.99999C17.0754 9.65468 16.7957 9.37499 16.4504 9.37499H5.05898L8.47656 5.95702C8.7207 5.71327 8.7207 5.31757 8.47656 5.07343Z" fill="#333333"/>
</svg>
