<svg width="36" height="36" viewBox="0 0 36 36" fill="none" xmlns="http://www.w3.org/2000/svg">
<path fill-rule="evenodd" clip-rule="evenodd" d="M15.4344 0.0833286H20.5657C23.2379 0.0833119 25.3329 0.0833118 27.0065 0.242445C28.7124 0.404645 30.1092 0.740945 31.3407 1.49553C32.6302 2.28573 33.7144 3.3699 34.5045 4.65938C35.259 5.89075 35.5954 7.28759 35.7575 8.99351C35.9167 10.6671 35.9167 12.7621 35.9167 15.4343V17.213C35.9167 19.1152 35.9167 20.6067 35.8345 21.8113C35.7509 23.0372 35.578 24.0573 35.1872 25.0007C34.2145 27.3488 32.3489 29.2145 30.0007 30.1872C28.6592 30.7428 27.131 30.8662 25.0389 30.9022C24.307 30.9148 23.8435 30.9242 23.4902 30.9632C23.16 30.9998 23.032 31.0533 22.957 31.097C22.878 31.1428 22.7704 31.2267 22.5835 31.483C22.3812 31.7607 22.1527 32.1442 21.7904 32.7565L20.8869 34.2828C19.5975 36.4612 16.4025 36.4612 15.1132 34.2828L14.2097 32.7565C13.8473 32.1442 13.6187 31.7607 13.4165 31.483C13.2296 31.2267 13.1219 31.1428 13.0429 31.097C12.968 31.0533 12.84 30.9998 12.5098 30.9632C12.1565 30.9242 11.693 30.9148 10.9611 30.9022C8.86901 30.8662 7.34094 30.7428 5.99932 30.1872C3.65114 29.2145 1.78551 27.3488 0.812858 25.0007C0.422091 24.0573 0.249208 23.0372 0.165574 21.8113C0.0833577 20.6067 0.0833744 19.1152 0.0833744 17.213V15.4343C0.0833577 12.7621 0.0833576 10.6671 0.242491 8.99351C0.404691 7.28759 0.740991 5.89075 1.49557 4.65938C2.28577 3.3699 3.36994 2.28573 4.65942 1.49553C5.89079 0.740945 7.28764 0.404645 8.99356 0.242445C10.6672 0.0833118 12.7621 0.0833119 15.4344 0.0833286ZM9.23019 2.73121C7.70727 2.87601 6.73822 3.15371 5.96567 3.62713C5.01257 4.2112 4.21124 5.01253 3.62717 5.96563C3.15376 6.73818 2.87606 7.70723 2.73126 9.23015C2.58469 10.7717 2.58337 12.7479 2.58337 15.5V17.1667C2.58337 19.1252 2.58406 20.5315 2.65977 21.6412C2.73472 22.7397 2.87899 23.456 3.12256 24.044C3.84147 25.7797 5.22042 27.1585 6.95604 27.8775C7.81542 28.2335 8.91181 28.3665 11.0042 28.4027L11.0572 28.4035C11.7206 28.415 12.3019 28.4248 12.785 28.4783C13.3041 28.5358 13.8119 28.652 14.2998 28.9358C14.7837 29.2173 15.1325 29.5932 15.4369 30.0105C15.7179 30.3963 16.0067 30.8843 16.334 31.4372L17.2645 33.0095C17.5859 33.5522 18.4142 33.5522 18.7354 33.0095L19.666 31.4372C19.9932 30.8843 20.282 30.3963 20.5632 30.0105C20.8674 29.5932 21.2164 29.2173 21.7002 28.9358C22.1882 28.652 22.6959 28.5358 23.215 28.4783C23.6982 28.4248 24.2794 28.415 24.9427 28.4035L24.9959 28.4027C27.0882 28.3665 28.1847 28.2335 29.044 27.8775C30.7797 27.1585 32.1585 25.7797 32.8775 24.044C33.121 23.456 33.2654 22.7397 33.3404 21.6412C33.416 20.5315 33.4167 19.1252 33.4167 17.1667V15.5C33.4167 12.7479 33.4154 10.7717 33.2689 9.23015C33.124 7.70723 32.8464 6.73818 32.3729 5.96563C31.7889 5.01253 30.9875 4.2112 30.0344 3.62713C29.2619 3.15371 28.2929 2.87601 26.7699 2.73121C25.2284 2.58465 23.252 2.58333 20.5 2.58333H15.5C12.748 2.58333 10.7717 2.58465 9.23019 2.73121ZM10.0834 13C10.0834 12.3096 10.643 11.75 11.3334 11.75H24.6667C25.357 11.75 25.9167 12.3096 25.9167 13C25.9167 13.6903 25.357 14.25 24.6667 14.25H11.3334C10.643 14.25 10.0834 13.6903 10.0834 13ZM10.0834 18.8333C10.0834 18.143 10.643 17.5833 11.3334 17.5833H20.5C21.1904 17.5833 21.75 18.143 21.75 18.8333C21.75 19.5237 21.1904 20.0833 20.5 20.0833H11.3334C10.643 20.0833 10.0834 19.5237 10.0834 18.8333Z" fill="white"/>
</svg>
