<svg width="50" height="50" viewBox="0 0 50 50" fill="none" xmlns="http://www.w3.org/2000/svg">
<path d="M20.9116 11.0754L22.2637 13.4981C23.4839 15.6846 22.9941 18.5528 21.0722 20.4746C21.0722 20.4746 18.7413 22.8058 22.9676 27.0323C27.1926 31.2573 29.5253 28.9277 29.5253 28.9277C31.4472 27.0058 34.3153 26.5161 36.5018 27.7363L38.9245 29.0883C42.2262 30.9308 42.616 35.5608 39.7141 38.4629C37.9703 40.2067 35.8341 41.5636 33.4726 41.6529C29.4974 41.8038 22.7464 40.7977 15.9743 34.0256C9.20228 27.2536 8.19619 20.5026 8.3469 16.5273C8.43642 14.1658 9.79326 12.0297 11.537 10.2859C14.439 7.38393 19.069 7.77384 20.9116 11.0754Z" fill="#1ACEDA"/>
</svg>
