<svg width="50" height="50" viewBox="0 0 50 50" fill="none" xmlns="http://www.w3.org/2000/svg">
<path fill-rule="evenodd" clip-rule="evenodd" d="M12.5155 7.09762C16.0156 3.59748 21.9223 3.86356 24.3593 8.23048L25.7114 10.6532C27.3029 13.505 26.6248 17.103 24.295 19.4613C24.2639 19.5038 24.0993 19.7433 24.0789 20.1616C24.0529 20.6956 24.2425 21.9306 26.1558 23.844C28.0685 25.7567 29.3033 25.9469 29.8377 25.9208C30.2564 25.9004 30.496 25.736 30.5385 25.7048C32.8968 23.3752 36.495 22.6969 39.3466 24.2883L41.7693 25.6406C46.1362 28.0777 46.4023 33.9842 42.9023 37.4844C41.03 39.3565 38.5406 41.02 35.6152 41.131C31.28 41.2954 24.0814 40.1758 16.9528 33.0471C9.82405 25.9183 8.70451 18.7199 8.86884 14.3846C8.97976 11.4592 10.6433 8.96983 12.5155 7.09762ZM21.6306 9.7534C20.3825 7.51725 17.029 7.00352 14.7252 9.30733C13.1099 10.9226 12.0598 12.7056 11.9916 14.503C11.8545 18.1183 12.7471 24.4221 19.1625 30.8373C25.5779 37.2527 31.8814 38.1452 35.4968 38.0081C37.2943 37.94 39.0773 36.89 40.6925 35.2746C42.9962 32.9708 42.4825 29.6173 40.2464 28.3694L37.8237 27.0173C36.3166 26.176 34.1995 26.4631 32.7135 27.9492C32.5675 28.095 31.6383 28.9621 29.9895 29.0423C28.3014 29.1244 26.2583 28.3658 23.9462 26.0537C21.6333 23.7408 20.875 21.6971 20.9577 20.0088C21.0385 18.3598 21.9056 17.4315 22.0506 17.2864C23.5366 15.8003 23.8237 13.6833 22.9827 12.1762L21.6306 9.7534Z" fill="#1C274C"/>
</svg>
