<svg width="46" height="46" viewBox="0 0 46 46" fill="none" xmlns="http://www.w3.org/2000/svg">
<path fill-rule="evenodd" clip-rule="evenodd" d="M19.7929 0.604157H26.207C29.5473 0.604136 32.166 0.604136 34.2581 0.803053C36.3904 1.0058 38.1364 1.42618 39.6758 2.36941C41.2877 3.35716 42.6429 4.71237 43.6306 6.32422C44.5737 7.86343 44.9941 9.60949 45.1968 11.7419C45.3958 13.8339 45.3958 16.4526 45.3958 19.7929V22.0162C45.3958 24.3939 45.3958 26.2583 45.2931 27.7642C45.1885 29.2964 44.9725 30.5717 44.4839 31.7508C43.2681 34.686 40.936 37.0181 38.0008 38.2339C36.3239 38.9285 34.4137 39.0827 31.7985 39.1277C30.8837 39.1435 30.3043 39.1552 29.8627 39.2039C29.45 39.2498 29.29 39.3167 29.1962 39.3712C29.0975 39.4285 28.9629 39.5333 28.7293 39.8537C28.4764 40.2008 28.1908 40.6802 27.7379 41.4456L26.6085 43.3535C24.9968 46.0764 21.0031 46.0764 19.3914 43.3535L18.262 41.4456C17.809 40.6802 17.5233 40.2008 17.2705 39.8537C17.0369 39.5333 16.9023 39.4285 16.8035 39.3712C16.7099 39.3167 16.5499 39.2498 16.1372 39.2039C15.6955 39.1552 15.1161 39.1435 14.2013 39.1277C11.5862 39.0827 9.67608 38.9285 7.99906 38.2339C5.06383 37.0181 2.73179 34.686 1.51598 31.7508C1.02752 30.5717 0.811418 29.2964 0.706876 27.7642C0.604106 26.2583 0.604126 24.3939 0.604126 22.0162V19.7929C0.604106 16.4526 0.604105 13.8339 0.803022 11.7419C1.00577 9.60949 1.42615 7.86343 2.36938 6.32422C3.35713 4.71237 4.71233 3.35716 6.32419 2.36941C7.8634 1.42618 9.60946 1.0058 11.7419 0.803053C13.8339 0.604136 16.4526 0.604136 19.7929 0.604157ZM12.0376 3.91401C10.134 4.09501 8.92269 4.44214 7.957 5.03391C6.76563 5.76399 5.76396 6.76566 5.03388 7.95703C4.44211 8.92272 4.09498 10.134 3.91398 12.0377C3.73077 13.9646 3.72913 16.4349 3.72913 19.875V21.9583C3.72913 24.4064 3.72998 26.1644 3.82463 27.5514C3.91831 28.9246 4.09865 29.82 4.40311 30.555C5.30175 32.7246 7.02544 34.4481 9.19496 35.3469C10.2692 35.7919 11.6397 35.9581 14.2552 36.0033L14.3215 36.0044C15.1506 36.0187 15.8772 36.031 16.4811 36.0979C17.1301 36.1698 17.7647 36.315 18.3747 36.6698C18.9795 37.0217 19.4156 37.4914 19.796 38.0131C20.1473 38.4954 20.5083 39.1054 20.9175 39.7964L22.0806 41.7619C22.4823 42.4402 23.5177 42.4402 23.9191 41.7619L25.0825 39.7964C25.4914 39.1054 25.8525 38.4954 26.2039 38.0131C26.5841 37.4914 27.0204 37.0217 27.6252 36.6698C28.2352 36.315 28.8697 36.1698 29.5187 36.0979C30.1227 36.031 30.8491 36.0187 31.6783 36.0044L31.7448 36.0033C34.3602 35.9581 35.7308 35.7919 36.805 35.3469C38.9745 34.4481 40.6981 32.7246 41.5968 30.555C41.9012 29.82 42.0816 28.9246 42.1754 27.5514C42.27 26.1644 42.2708 24.4064 42.2708 21.9583V19.875C42.2708 16.4349 42.2691 13.9646 42.086 12.0377C41.905 10.134 41.5579 8.92272 40.966 7.95703C40.236 6.76566 39.2343 5.76399 38.0429 5.03391C37.0773 4.44214 35.866 4.09501 33.9622 3.91401C32.0354 3.7308 29.565 3.72916 26.125 3.72916H19.875C16.4349 3.72916 13.9645 3.7308 12.0376 3.91401ZM13.1041 16.75C13.1041 15.8871 13.8037 15.1875 14.6666 15.1875H31.3333C32.1962 15.1875 32.8958 15.8871 32.8958 16.75C32.8958 17.6129 32.1962 18.3125 31.3333 18.3125H14.6666C13.8037 18.3125 13.1041 17.6129 13.1041 16.75ZM13.1041 24.0417C13.1041 23.1787 13.8037 22.4792 14.6666 22.4792H26.125C26.9879 22.4792 27.6875 23.1787 27.6875 24.0417C27.6875 24.9046 26.9879 25.6042 26.125 25.6042H14.6666C13.8037 25.6042 13.1041 24.9046 13.1041 24.0417Z" fill="#1C274C"/>
</svg>
