<svg width="50" height="50" viewBox="0 0 50 50" fill="none" xmlns="http://www.w3.org/2000/svg">
<path opacity="0.5" d="M28.3933 42.6496L27.2639 44.5577C26.2573 46.2583 23.7427 46.2583 22.736 44.5577L21.6066 42.6496C20.7306 41.1696 20.2926 40.4298 19.5891 40.0204C18.8856 39.6112 17.9998 39.596 16.2283 39.5656C13.6129 39.5204 11.9726 39.3602 10.597 38.7904C8.04463 37.7331 6.01677 35.7054 4.95954 33.1529C4.16663 31.2387 4.16663 28.8119 4.16663 23.9583V21.875C4.16663 15.0553 4.16663 11.6455 5.70163 9.14064C6.56054 7.73901 7.73898 6.56057 9.1406 5.70166C11.6455 4.16666 15.0553 4.16666 21.875 4.16666H28.125C34.9445 4.16666 38.3543 4.16666 40.8593 5.70166C42.261 6.56057 43.4393 7.73901 44.2983 9.14064C45.8333 11.6455 45.8333 15.0553 45.8333 21.875V23.9583C45.8333 28.8119 45.8333 31.2387 45.0404 33.1529C43.9831 35.7054 41.9554 37.7331 39.4029 38.7904C38.0273 39.3602 36.387 39.5204 33.7716 39.5656C32 39.596 31.1143 39.6112 30.4108 40.0204C29.7073 40.4296 29.2691 41.1696 28.3933 42.6496Z" fill="#1ACEDA"/>
<path d="M15.1041 18.75C15.1041 17.8871 15.8037 17.1875 16.6666 17.1875H33.3333C34.1962 17.1875 34.8958 17.8871 34.8958 18.75C34.8958 19.6129 34.1962 20.3125 33.3333 20.3125H16.6666C15.8037 20.3125 15.1041 19.6129 15.1041 18.75Z" fill="#1ACEDA"/>
<path d="M15.1041 26.0417C15.1041 25.1787 15.8037 24.4792 16.6666 24.4792H28.125C28.9879 24.4792 29.6875 25.1787 29.6875 26.0417C29.6875 26.9046 28.9879 27.6042 28.125 27.6042H16.6666C15.8037 27.6042 15.1041 26.9046 15.1041 26.0417Z" fill="#1ACEDA"/>
</svg>
