<svg width="92" height="47" viewBox="0 0 92 47" fill="none" xmlns="http://www.w3.org/2000/svg">
<path d="M52.4438 23.7495L54.6097 21.5837C54.8887 21.2948 55.0431 20.9079 55.0396 20.5063C55.0361 20.1046 54.875 19.7205 54.591 19.4365C54.307 19.1525 53.9228 18.9914 53.5212 18.9879C53.1196 18.9844 52.7327 19.1388 52.4438 19.4178L50.2779 21.5837L48.1121 19.4178C47.9708 19.2715 47.8018 19.1548 47.6149 19.0746C47.428 18.9943 47.227 18.952 47.0236 18.9503C46.8203 18.9485 46.6186 18.9872 46.4303 19.0643C46.2421 19.1413 46.0711 19.255 45.9272 19.3988C45.7834 19.5426 45.6697 19.7137 45.5927 19.9019C45.5157 20.0902 45.4769 20.2918 45.4787 20.4952C45.4804 20.6986 45.5227 20.8996 45.603 21.0865C45.6832 21.2734 45.7999 21.4424 45.9462 21.5837L48.1121 23.7495L45.9462 25.9154C45.7999 26.0567 45.6832 26.2257 45.603 26.4126C45.5227 26.5995 45.4804 26.8004 45.4787 27.0038C45.4769 27.2072 45.5157 27.4089 45.5927 27.5971C45.6697 27.7854 45.7834 27.9564 45.9272 28.1002C46.0711 28.244 46.2421 28.3578 46.4303 28.4348C46.6186 28.5118 46.8203 28.5506 47.0236 28.5488C47.227 28.547 47.428 28.5048 47.6149 28.4245C47.8018 28.3442 47.9708 28.2275 48.1121 28.0812L50.2779 25.9154L52.4438 28.0812C52.5851 28.2275 52.7541 28.3442 52.941 28.4245C53.1279 28.5048 53.3289 28.547 53.5322 28.5488C53.7356 28.5506 53.9373 28.5118 54.1256 28.4348C54.3138 28.3578 54.4848 28.244 54.6286 28.1002C54.7725 27.9564 54.8862 27.7854 54.9632 27.5971C55.0402 27.4089 55.079 27.2072 55.0772 27.0038C55.0754 26.8004 55.0332 26.5995 54.9529 26.4126C54.8726 26.2257 54.7559 26.0567 54.6097 25.9154L52.4438 23.7495ZM42.3559 13.0275H57.9366C58.749 13.0275 59.5282 13.3502 60.1027 13.9247C60.6772 14.4992 61 15.2784 61 16.0909V31.4081C61 32.2206 60.6772 32.9998 60.1027 33.5743C59.5282 34.1488 58.749 34.4716 57.9366 34.4716H42.3559C41.5435 34.4714 40.7644 34.1485 40.19 33.574L31.4485 24.8325C31.1613 24.5452 31 24.1557 31 23.7495C31 23.3434 31.1613 22.9538 31.4485 22.6666L40.19 13.9251C40.7644 13.3505 41.5435 13.0276 42.3559 13.0275Z" fill="#00201C"/>
</svg>
