<svg width="75" height="74" viewBox="0 0 75 74" fill="none" xmlns="http://www.w3.org/2000/svg">
<rect x="0.665039" width="73.47" height="73.499" rx="36.735" fill="#1ACEDA"/>
<path d="M44.4089 41.4907L43.5123 42.3834C43.5123 42.3834 41.3782 44.5037 35.5552 38.7142C29.7323 32.9247 31.8664 30.8044 31.8664 30.8044L32.4299 30.2409C33.8231 28.8575 33.9551 26.6348 32.7393 25.0111L30.2564 21.6946C28.7509 19.6847 25.8444 19.4186 24.1202 21.133L21.0264 24.2071C20.1732 25.0583 19.6017 26.1579 19.6707 27.3796C19.848 30.5069 21.2629 37.2324 29.1529 45.0791C37.5218 53.3987 45.3744 53.7297 48.5844 53.4302C49.6012 53.3356 50.484 52.8193 51.1954 52.11L53.9936 49.3275C55.8853 47.4496 55.3532 44.2278 52.9334 42.9134L49.1697 40.866C47.5814 40.0029 45.6503 40.2571 44.4089 41.4907Z" fill="#FDFDFD"/>
</svg>
