<svg width="103" height="47" viewBox="0 0 103 47" fill="none" xmlns="http://www.w3.org/2000/svg">
<path fill-rule="evenodd" clip-rule="evenodd" d="M54.1145 37.8692L53.211 39.3957C52.4057 40.7562 50.394 40.7562 49.5887 39.3957L48.6852 37.8692C47.9844 36.6852 47.634 36.0934 47.0711 35.7659C46.5083 35.4386 45.7997 35.4264 44.3825 35.4021C42.2902 35.3659 40.978 35.2377 39.8775 34.7819C37.8356 33.9361 36.2133 32.3139 35.3675 30.2719C34.7332 28.7406 34.7332 26.7991 34.7332 22.9162V21.2496C34.7332 15.7938 34.7332 13.066 35.9612 11.0621C36.6483 9.94077 37.591 8.99802 38.7123 8.31089C40.7162 7.08289 43.4441 7.08289 48.8998 7.08289H53.8998C59.3555 7.08289 62.0833 7.08289 64.0873 8.31089C65.2087 8.99802 66.1513 9.94077 66.8385 11.0621C68.0665 13.066 68.0665 15.7938 68.0665 21.2496V22.9162C68.0665 26.7991 68.0665 28.7406 67.4322 30.2719C66.5863 32.3139 64.9642 33.9361 62.9222 34.7819C61.8217 35.2377 60.5095 35.3659 58.4172 35.4021C56.9998 35.4264 56.2913 35.4386 55.7285 35.7659C55.1657 36.0932 54.8152 36.6852 54.1145 37.8692ZM44.7332 23.3329C44.0428 23.3329 43.4832 23.8926 43.4832 24.5829C43.4832 25.2732 44.0428 25.8329 44.7332 25.8329H53.8998C54.5902 25.8329 55.1498 25.2732 55.1498 24.5829C55.1498 23.8926 54.5902 23.3329 53.8998 23.3329H44.7332ZM43.4832 18.7496C43.4832 18.0592 44.0428 17.4996 44.7332 17.4996H58.0665C58.7568 17.4996 59.3165 18.0592 59.3165 18.7496C59.3165 19.4399 58.7568 19.9996 58.0665 19.9996H44.7332C44.0428 19.9996 43.4832 19.4399 43.4832 18.7496Z" fill="#1ACEDA"/>
</svg>
