<svg width="100" height="100" viewBox="0 0 100 100" fill="none" xmlns="http://www.w3.org/2000/svg">
<path d="M56.7867 85.2992L54.528 89.1154C52.5146 92.5167 47.4855 92.5167 45.4721 89.1154L43.2134 85.2992C41.4614 82.3392 40.5854 80.8596 39.1783 80.0408C37.7713 79.2225 35.9997 79.1921 32.4566 79.1313C27.226 79.0408 23.9454 78.7204 21.1941 77.5808C16.0894 75.4663 12.0337 71.4108 9.91921 66.3058C8.33337 62.4775 8.33337 57.6237 8.33337 47.9167V43.75C8.33337 30.1107 8.33337 23.291 11.4034 18.2813C13.1212 15.478 15.4781 13.1211 18.2813 11.4033C23.2911 8.33331 30.1108 8.33331 43.75 8.33331H56.25C69.8892 8.33331 76.7088 8.33331 81.7188 11.4033C84.5221 13.1211 86.8788 15.478 88.5967 18.2813C91.6667 23.291 91.6667 30.1107 91.6667 43.75V47.9167C91.6667 57.6237 91.6667 62.4775 90.0809 66.3058C87.9663 71.4108 83.9109 75.4663 78.8059 77.5808C76.0546 78.7204 72.7742 79.0408 67.5434 79.1313C64 79.1921 62.2288 79.2225 60.8217 80.0408C59.4146 80.8592 58.5384 82.3392 56.7867 85.2992Z" fill="white"/>
<circle cx="32.375" cy="30.375" r="6.25" fill="#8A8A8A"/>
<circle cx="32.375" cy="48.125" r="6.25" fill="#8A8A8A"/>
<circle cx="50" cy="30.375" r="6.25" fill="#8A8A8A"/>
<circle cx="50" cy="48.125" r="6.25" fill="#8A8A8A"/>
<circle cx="50" cy="66" r="6.25" fill="#8A8A8A"/>
<circle cx="68.125" cy="30.375" r="6.25" fill="#8A8A8A"/>
<circle cx="68.125" cy="48.125" r="6.25" fill="#8A8A8A"/>
</svg>
