<svg width="20" height="20" viewBox="0 0 20 20" fill="none" xmlns="http://www.w3.org/2000/svg">
<path d="M11.3574 17.0598L10.9057 17.8231C10.503 18.5033 9.49716 18.5033 9.0945 17.8231L8.64275 17.0598C8.29236 16.4678 8.11716 16.1719 7.83574 16.0082C7.55432 15.8445 7.20002 15.8384 6.4914 15.8263C5.44526 15.8082 4.78916 15.7441 4.2389 15.5162C3.21795 15.0933 2.40681 14.2822 1.98391 13.2612C1.66675 12.4955 1.66675 11.5247 1.66675 9.58333V8.75C1.66675 6.02214 1.66675 4.65821 2.28075 3.65626C2.62431 3.09561 3.09569 2.62423 3.65634 2.28066C4.65829 1.66666 6.02222 1.66666 8.75008 1.66666H11.2501C13.9779 1.66666 15.3418 1.66666 16.3438 2.28066C16.9045 2.62423 17.3758 3.09561 17.7194 3.65626C18.3334 4.65821 18.3334 6.02214 18.3334 8.75V9.58333C18.3334 11.5247 18.3334 12.4955 18.0162 13.2612C17.5933 14.2822 16.7822 15.0933 15.7612 15.5162C15.211 15.7441 14.5549 15.8082 13.5087 15.8263C12.8001 15.8384 12.4458 15.8445 12.1644 16.0082C11.883 16.1718 11.7077 16.4678 11.3574 17.0598Z" fill="white"/>
<circle cx="6.4751" cy="6.075" r="1.25" fill="#8A8A8A"/>
<circle cx="6.4751" cy="9.625" r="1.25" fill="#8A8A8A"/>
<circle cx="10" cy="6.075" r="1.25" fill="#8A8A8A"/>
<circle cx="10" cy="9.625" r="1.25" fill="#8A8A8A"/>
<circle cx="10" cy="13.2" r="1.25" fill="#8A8A8A"/>
<circle cx="13.625" cy="6.075" r="1.25" fill="#8A8A8A"/>
<circle cx="13.625" cy="9.625" r="1.25" fill="#8A8A8A"/>
</svg>
