<svg width="20" height="20" viewBox="0 0 20 20" fill="none" xmlns="http://www.w3.org/2000/svg">
<path d="M15.6932 7.11181L10.03 12.7266L4.4156 7.06341C4.2602 6.90641 4.0068 6.90561 3.85 7.06101C3.6932 7.21641 3.6922 7.46981 3.8476 7.62641L9.6864 13.516C9.7594 13.5896 9.8534 13.6286 9.9488 13.6338C9.9766 13.6354 10.0044 13.6336 10.0318 13.6296C10.0426 13.6312 10.053 13.6338 10.0638 13.634C10.1726 13.6398 10.2836 13.6016 10.3668 13.5188L16.2562 7.67961C16.4132 7.52421 16.4142 7.27101 16.2586 7.11401C16.103 6.95701 15.8498 6.95621 15.6932 7.11181Z" fill="black"/>
</svg>
