<svg width="74" height="74" viewBox="0 0 74 74" fill="none" xmlns="http://www.w3.org/2000/svg">
<rect x="0.264893" width="73.47" height="73.499" rx="36.735" fill="#F24646"/>
<path d="M28.5907 37.6926L28.6933 36.4315C28.6933 36.4315 28.9403 33.4334 37.1278 34.0575C45.3153 34.6816 45.0683 37.6797 45.0683 37.6797L45.0054 38.4743C44.8436 40.4309 46.186 42.2074 48.1649 42.6533L52.2064 43.5643C54.6563 44.116 57.0399 42.4317 57.2386 40.0083L57.5966 35.6617C57.693 34.4603 57.414 33.253 56.5684 32.3684C54.4036 30.1047 48.9616 25.9071 37.8663 25.0599C26.0998 24.1638 19.9116 29.0093 17.6642 31.3209C16.9521 32.0529 16.6157 33.0186 16.5351 34.02L16.2127 37.9529C15.9927 40.6094 18.4888 42.7148 21.1827 42.1438L25.3747 41.2581C27.1431 40.8837 28.4471 39.4368 28.5907 37.6926Z" fill="#FDFDFD"/>
</svg>
