<svg width="30" height="30" viewBox="0 0 30 30" fill="none" xmlns="http://www.w3.org/2000/svg">
<path d="M6.875 5.625C6.875 4.58947 7.71447 3.75 8.75 3.75C9.78553 3.75 10.625 4.58947 10.625 5.625C10.625 6.66053 9.78553 7.5 8.75 7.5C7.71447 7.5 6.875 6.66053 6.875 5.625Z" fill="#1ACEDA"/>
<path d="M6.875 11.875C6.875 10.8395 7.71447 10 8.75 10C9.78553 10 10.625 10.8395 10.625 11.875C10.625 12.9105 9.78553 13.75 8.75 13.75C7.71447 13.75 6.875 12.9105 6.875 11.875Z" fill="#1ACEDA"/>
<path d="M8.75 16.25C7.71447 16.25 6.875 17.0895 6.875 18.125C6.875 19.1605 7.71447 20 8.75 20C9.78553 20 10.625 19.1605 10.625 18.125C10.625 17.0895 9.78553 16.25 8.75 16.25Z" fill="#1ACEDA"/>
<path d="M13.125 5.625C13.125 4.58947 13.9645 3.75 15 3.75C16.0355 3.75 16.875 4.58947 16.875 5.625C16.875 6.66053 16.0355 7.5 15 7.5C13.9645 7.5 13.125 6.66053 13.125 5.625Z" fill="#1ACEDA"/>
<path d="M15 10C13.9645 10 13.125 10.8395 13.125 11.875C13.125 12.9105 13.9645 13.75 15 13.75C16.0355 13.75 16.875 12.9105 16.875 11.875C16.875 10.8395 16.0355 10 15 10Z" fill="#1ACEDA"/>
<path d="M13.125 18.125C13.125 17.0895 13.9645 16.25 15 16.25C16.0355 16.25 16.875 17.0895 16.875 18.125C16.875 19.1605 16.0355 20 15 20C13.9645 20 13.125 19.1605 13.125 18.125Z" fill="#1ACEDA"/>
<path d="M15 22.5C13.9645 22.5 13.125 23.3395 13.125 24.375C13.125 25.4105 13.9645 26.25 15 26.25C16.0355 26.25 16.875 25.4105 16.875 24.375C16.875 23.3395 16.0355 22.5 15 22.5Z" fill="#1ACEDA"/>
<path d="M19.375 5.625C19.375 4.58947 20.2145 3.75 21.25 3.75C22.2855 3.75 23.125 4.58947 23.125 5.625C23.125 6.66053 22.2855 7.5 21.25 7.5C20.2145 7.5 19.375 6.66053 19.375 5.625Z" fill="#1ACEDA"/>
<path d="M21.25 10C20.2145 10 19.375 10.8395 19.375 11.875C19.375 12.9105 20.2145 13.75 21.25 13.75C22.2855 13.75 23.125 12.9105 23.125 11.875C23.125 10.8395 22.2855 10 21.25 10Z" fill="#1ACEDA"/>
<path d="M19.375 18.125C19.375 17.0895 20.2145 16.25 21.25 16.25C22.2855 16.25 23.125 17.0895 23.125 18.125C23.125 19.1605 22.2855 20 21.25 20C20.2145 20 19.375 19.1605 19.375 18.125Z" fill="#1ACEDA"/>
</svg>
