<svg width="24" height="25" viewBox="0 0 24 25" fill="none" xmlns="http://www.w3.org/2000/svg">
<path d="M12 19.5C11.4696 19.5 10.9609 19.7107 10.5858 20.0858C10.2107 20.4609 10 20.9696 10 21.5C10 22.0304 10.2107 22.5391 10.5858 22.9142C10.9609 23.2893 11.4696 23.5 12 23.5C12.5304 23.5 13.0391 23.2893 13.4142 22.9142C13.7893 22.5391 14 22.0304 14 21.5C14 20.9696 13.7893 20.4609 13.4142 20.0858C13.0391 19.7107 12.5304 19.5 12 19.5ZM6 1.5C5.46957 1.5 4.96086 1.71071 4.58579 2.08579C4.21071 2.46086 4 2.96957 4 3.5C4 4.03043 4.21071 4.53914 4.58579 4.91421C4.96086 5.28929 5.46957 5.5 6 5.5C6.53043 5.5 7.03914 5.28929 7.41421 4.91421C7.78929 4.53914 8 4.03043 8 3.5C8 2.96957 7.78929 2.46086 7.41421 2.08579C7.03914 1.71071 6.53043 1.5 6 1.5ZM6 7.5C5.46957 7.5 4.96086 7.71071 4.58579 8.08579C4.21071 8.46086 4 8.96957 4 9.5C4 10.0304 4.21071 10.5391 4.58579 10.9142C4.96086 11.2893 5.46957 11.5 6 11.5C6.53043 11.5 7.03914 11.2893 7.41421 10.9142C7.78929 10.5391 8 10.0304 8 9.5C8 8.96957 7.78929 8.46086 7.41421 8.08579C7.03914 7.71071 6.53043 7.5 6 7.5ZM6 13.5C5.46957 13.5 4.96086 13.7107 4.58579 14.0858C4.21071 14.4609 4 14.9696 4 15.5C4 16.0304 4.21071 16.5391 4.58579 16.9142C4.96086 17.2893 5.46957 17.5 6 17.5C6.53043 17.5 7.03914 17.2893 7.41421 16.9142C7.78929 16.5391 8 16.0304 8 15.5C8 14.9696 7.78929 14.4609 7.41421 14.0858C7.03914 13.7107 6.53043 13.5 6 13.5ZM18 5.5C18.5304 5.5 19.0391 5.28929 19.4142 4.91421C19.7893 4.53914 20 4.03043 20 3.5C20 2.96957 19.7893 2.46086 19.4142 2.08579C19.0391 1.71071 18.5304 1.5 18 1.5C17.4696 1.5 16.9609 1.71071 16.5858 2.08579C16.2107 2.46086 16 2.96957 16 3.5C16 4.03043 16.2107 4.53914 16.5858 4.91421C16.9609 5.28929 17.4696 5.5 18 5.5ZM12 13.5C11.4696 13.5 10.9609 13.7107 10.5858 14.0858C10.2107 14.4609 10 14.9696 10 15.5C10 16.0304 10.2107 16.5391 10.5858 16.9142C10.9609 17.2893 11.4696 17.5 12 17.5C12.5304 17.5 13.0391 17.2893 13.4142 16.9142C13.7893 16.5391 14 16.0304 14 15.5C14 14.9696 13.7893 14.4609 13.4142 14.0858C13.0391 13.7107 12.5304 13.5 12 13.5ZM18 13.5C17.4696 13.5 16.9609 13.7107 16.5858 14.0858C16.2107 14.4609 16 14.9696 16 15.5C16 16.0304 16.2107 16.5391 16.5858 16.9142C16.9609 17.2893 17.4696 17.5 18 17.5C18.5304 17.5 19.0391 17.2893 19.4142 16.9142C19.7893 16.5391 20 16.0304 20 15.5C20 14.9696 19.7893 14.4609 19.4142 14.0858C19.0391 13.7107 18.5304 13.5 18 13.5ZM18 7.5C17.4696 7.5 16.9609 7.71071 16.5858 8.08579C16.2107 8.46086 16 8.96957 16 9.5C16 10.0304 16.2107 10.5391 16.5858 10.9142C16.9609 11.2893 17.4696 11.5 18 11.5C18.5304 11.5 19.0391 11.2893 19.4142 10.9142C19.7893 10.5391 20 10.0304 20 9.5C20 8.96957 19.7893 8.46086 19.4142 8.08579C19.0391 7.71071 18.5304 7.5 18 7.5ZM12 7.5C11.4696 7.5 10.9609 7.71071 10.5858 8.08579C10.2107 8.46086 10 8.96957 10 9.5C10 10.0304 10.2107 10.5391 10.5858 10.9142C10.9609 11.2893 11.4696 11.5 12 11.5C12.5304 11.5 13.0391 11.2893 13.4142 10.9142C13.7893 10.5391 14 10.0304 14 9.5C14 8.96957 13.7893 8.46086 13.4142 8.08579C13.0391 7.71071 12.5304 7.5 12 7.5ZM12 1.5C11.4696 1.5 10.9609 1.71071 10.5858 2.08579C10.2107 2.46086 10 2.96957 10 3.5C10 4.03043 10.2107 4.53914 10.5858 4.91421C10.9609 5.28929 11.4696 5.5 12 5.5C12.5304 5.5 13.0391 5.28929 13.4142 4.91421C13.7893 4.53914 14 4.03043 14 3.5C14 2.96957 13.7893 2.46086 13.4142 2.08579C13.0391 1.71071 12.5304 1.5 12 1.5Z" fill="white"/>
</svg>
