<svg width="30" height="30" viewBox="0 0 30 30" fill="none" xmlns="http://www.w3.org/2000/svg">
<path d="M16.875 20.7318C16.875 21.7673 16.0355 22.6068 15 22.6068C13.9645 22.6068 13.125 21.7673 13.125 20.7318C13.125 19.6961 13.9645 18.8568 15 18.8568C16.0355 18.8568 16.875 19.6961 16.875 20.7318Z" fill="#8A8A8A"/>
<path fill-rule="evenodd" clip-rule="evenodd" d="M7.42761 12.5006C7.42401 12.3417 7.42188 12.1717 7.42188 11.9922C7.42188 10.8842 7.50317 9.37978 7.84226 7.85384C8.17847 6.34089 8.79053 4.70377 9.92511 3.42736C11.0989 2.10687 12.7665 1.25 15 1.25C17.2335 1.25 18.9011 2.10687 20.0749 3.42736C21.2095 4.70377 21.8215 6.34089 22.1577 7.85384C22.4969 9.37978 22.5781 10.8842 22.5781 11.9922C22.5781 12.1717 22.576 12.3417 22.5724 12.5006C24.61 12.5392 26.25 14.2031 26.25 16.25V25C26.25 27.0711 24.5711 28.75 22.5 28.75H7.5C5.42894 28.75 3.75 27.0711 3.75 25V16.25C3.75 14.2031 5.38995 12.5392 7.42761 12.5006ZM20.0716 12.5C20.0756 12.3433 20.0781 12.1734 20.0781 11.9922C20.0781 10.9908 20.0031 9.68272 19.7172 8.39616C19.4285 7.09661 18.9467 5.92123 18.2064 5.08826C17.5051 4.29938 16.5165 3.75 15 3.75C13.4835 3.75 12.4949 4.29938 11.7936 5.08826C11.0532 5.92123 10.5715 7.09661 10.2827 8.39616C9.99684 9.68272 9.92188 10.9908 9.92188 11.9922C9.92188 12.1734 9.92432 12.3433 9.92831 12.5H20.0716ZM23.75 16.25C23.75 15.5596 23.1904 15 22.5 15H7.5C6.80965 15 6.25 15.5596 6.25 16.25V25C6.25 25.6904 6.80965 26.25 7.5 26.25H22.5C23.1904 26.25 23.75 25.6904 23.75 25V16.25Z" fill="#8A8A8A"/>
</svg>
