<svg width="22" height="27" viewBox="0 0 22 27" fill="none" xmlns="http://www.w3.org/2000/svg">
<path d="M21.0762 12.2453H19.4426C19.3228 12.2453 19.2248 12.3433 19.2248 12.4631C19.2248 16.2831 16.1291 19.3788 12.3091 19.3788C10.5938 19.3788 9.02278 18.7526 7.81662 17.718L6.34635 19.1882C7.67776 20.3645 9.36312 21.1568 11.22 21.3937V24.1708H7.27208C6.89362 24.1708 6.59412 24.5602 6.5914 25.0421V26.0223C6.59412 26.1421 6.67035 26.2401 6.75476 26.2401H17.8634C17.9506 26.2401 18.0268 26.1421 18.0268 26.0223V25.0421C18.0268 24.5602 17.7273 24.1708 17.3461 24.1708H13.2893V21.3937C17.7899 20.9063 21.2941 17.0945 21.2941 12.4631C21.2941 12.3433 21.196 12.2453 21.0762 12.2453ZM21.4329 1.96163L20.2485 0.820813C20.1641 0.739131 20.028 0.739131 19.9436 0.823535L16.4313 4.33584C15.6662 2.8574 14.1061 1.84455 12.3091 1.84455C9.75247 1.84455 7.68048 3.89476 7.68048 6.41872V12.5176C7.68048 12.7 7.69137 12.8797 7.71316 13.0567L5.86171 14.9081C5.57582 14.1485 5.41791 13.3235 5.42063 12.4631C5.41518 12.3433 5.31716 12.2453 5.20281 12.2453H3.56918C3.44938 12.2453 3.35136 12.3433 3.35136 12.4631C3.35136 13.9062 3.6917 15.2675 4.29342 16.4764L0.563303 20.2065C0.478899 20.291 0.478899 20.4298 0.563303 20.5142L1.7259 21.6768C1.81031 21.7612 1.94917 21.7612 2.03357 21.6768L21.4356 2.27474L21.4384 2.27202C21.5228 2.18489 21.52 2.04603 21.4329 1.96163ZM9.74975 11.0201V6.41872C9.74975 5.04102 10.8906 3.91382 12.3091 3.91382C13.5615 3.91382 14.5989 4.79325 14.8222 5.94769L9.74975 11.0201Z" fill="white"/>
</svg>
