<svg width="30" height="30" viewBox="0 0 30 30" fill="none" xmlns="http://www.w3.org/2000/svg">
<path d="M15 1.25C17.0565 1.25 18.8232 2.49166 19.591 4.26623L10 13.8573V6.25C10 3.48857 12.2386 1.25 15 1.25Z" fill="#1ACEDA"/>
<path d="M7.8125 15C7.8125 15.329 7.83505 15.6556 7.87931 15.9779L5.31496 18.5422C4.90372 17.418 4.6875 16.2201 4.6875 15V14.8047C4.6875 14.1144 5.24715 13.5547 5.9375 13.5547H6.5625C7.25286 13.5547 7.8125 14.1144 7.8125 14.8047V15Z" fill="#1ACEDA"/>
<path d="M9.15525 23.4964L4.70967 27.9419C4.2215 28.4302 3.43005 28.4302 2.9419 27.9419L2.05802 27.058C1.56985 26.5699 1.56985 25.7784 2.05802 25.2903L25.2903 2.05808C25.7784 1.56991 26.5699 1.56991 27.058 2.05808L27.9419 2.94195C28.43 3.43011 28.43 4.22157 27.9419 4.70973L20 12.6517V15C20 17.7614 17.7614 20 15 20C14.3071 20 13.6471 19.8592 13.0473 19.6044L11.4194 21.2322C12.4996 21.8528 13.7325 22.1875 15 22.1875C16.9063 22.1875 18.7344 21.4303 20.0823 20.0824C21.4303 18.7344 22.1875 16.9063 22.1875 15V14.8048C22.1875 14.1144 22.7471 13.5548 23.4375 13.5548H24.0625C24.7529 13.5548 25.3125 14.1144 25.3125 14.8047V15C25.3125 17.735 24.226 20.3582 22.292 22.292C20.7303 23.8539 18.7191 24.8629 16.5625 25.1935V28.75H13.4375V25.1935C11.8993 24.9578 10.4352 24.3768 9.15525 23.4964Z" fill="#1ACEDA"/>
</svg>
