<svg width="27" height="26" viewBox="0 0 27 26" fill="none" xmlns="http://www.w3.org/2000/svg">
<path d="M13.5429 5.23426C14.2327 5.21053 14.7729 4.63198 14.7491 3.94203C14.7254 3.25208 14.1469 2.712 13.4569 2.73573L13.5429 5.23426ZM5.93062 12.27L4.68122 12.3083C4.68167 12.323 4.68237 12.3377 4.68334 12.3523L5.93062 12.27ZM3.797 17.965L4.61302 18.9118C4.63537 18.8927 4.65704 18.8727 4.67797 18.8518L3.797 17.965ZM3.06575 18.57L3.80002 19.5817C3.82065 19.5667 3.84082 19.551 3.8605 19.5348L3.06575 18.57ZM10.2499 22.5833C10.9402 22.5833 11.4999 22.0237 11.4999 21.3333C11.4999 20.643 10.9402 20.0833 10.2499 20.0833V22.5833ZM13.5429 2.73573C12.8529 2.712 12.2744 3.25208 12.2506 3.94203C12.2269 4.63198 12.7669 5.21053 13.4569 5.23426L13.5429 2.73573ZM21.0691 12.27L22.3164 12.3522C22.3174 12.3375 22.3181 12.323 22.3186 12.3083L21.0691 12.27ZM23.2027 17.9633L22.3217 18.8502C22.3427 18.8708 22.3644 18.891 22.3867 18.9102L23.2027 17.9633ZM23.9341 18.5683L23.1392 19.5332C23.1586 19.549 23.1782 19.5643 23.1984 19.579L23.9341 18.5683ZM16.7499 20.0833C16.0596 20.0833 15.4999 20.643 15.4999 21.3333C15.4999 22.0237 16.0596 22.5833 16.7499 22.5833V20.0833ZM12.2499 3.985C12.2499 4.67535 12.8096 5.235 13.4999 5.235C14.1902 5.235 14.7499 4.67535 14.7499 3.985H12.2499ZM14.7499 1.33333C14.7499 0.642982 14.1902 0.0833321 13.4999 0.0833321C12.8096 0.0833321 12.2499 0.642982 12.2499 1.33333H14.7499ZM10.2499 20.0833C9.55952 20.0833 8.99987 20.643 8.99987 21.3333C8.99987 22.0237 9.55952 22.5833 10.2499 22.5833V20.0833ZM16.7499 22.5833C17.4402 22.5833 17.9999 22.0237 17.9999 21.3333C17.9999 20.643 17.4402 20.0833 16.7499 20.0833V22.5833ZM11.4999 21.3333C11.4999 20.643 10.9402 20.0833 10.2499 20.0833C9.55952 20.0833 8.99987 20.643 8.99987 21.3333H11.4999ZM17.9999 21.3333C17.9999 20.643 17.4402 20.0833 16.7499 20.0833C16.0596 20.0833 15.4999 20.643 15.4999 21.3333H17.9999ZM13.4569 2.73573C8.4205 2.90897 4.52505 7.22002 4.68122 12.3083L7.18004 12.2317C7.06429 8.46021 9.94154 5.35813 13.5429 5.23426L13.4569 2.73573ZM4.68334 12.3523C4.80039 14.1247 4.14935 15.853 2.91604 17.0782L4.67797 18.8518C6.43192 17.1093 7.34192 14.671 7.1779 12.1877L4.68334 12.3523ZM2.98099 17.0182C2.71984 17.2432 2.50034 17.4163 2.27099 17.6052L3.8605 19.5348C4.0439 19.3837 4.3249 19.1602 4.61302 18.9118L2.98099 17.0182ZM2.33149 17.5583C1.96605 17.8237 1.63399 18.2027 1.38645 18.6028C1.14199 18.9978 0.908087 19.5297 0.878121 20.118C0.845337 20.7615 1.067 21.4772 1.72552 21.9807C2.31465 22.4313 3.09097 22.5833 3.91237 22.5833V20.0833C3.64015 20.0833 3.46009 20.0567 3.34962 20.0285C3.24009 20.0007 3.2206 19.9768 3.2442 19.9948C3.27477 20.0183 3.32009 20.068 3.34997 20.1395C3.3771 20.2047 3.37477 20.2473 3.37489 20.2453C3.37512 20.2405 3.37844 20.2055 3.40224 20.1398C3.42549 20.0757 3.46212 19.9995 3.51239 19.9183C3.56237 19.8375 3.61922 19.7623 3.67554 19.6997C3.73345 19.635 3.77847 19.5972 3.80002 19.5817L2.33149 17.5583ZM3.91237 22.5833H10.2499V20.0833H3.91237V22.5833ZM13.4569 5.23426C17.0582 5.35813 19.9354 8.46021 19.8197 12.2317L22.3186 12.3083C22.4747 7.22002 18.5792 2.90897 13.5429 2.73573L13.4569 5.23426ZM19.8219 12.1878C19.6584 14.6707 20.5684 17.1082 22.3217 18.8502L24.0837 17.0765C22.8507 15.8517 22.1997 14.124 22.3164 12.3522L19.8219 12.1878ZM22.3867 18.9102C22.6749 19.1585 22.9559 19.382 23.1392 19.5332L24.7287 17.6035C24.4994 17.4147 24.2799 17.2415 24.0187 17.0165L22.3867 18.9102ZM23.1984 19.579C23.2207 19.5952 23.2664 19.6337 23.3247 19.6988C23.3816 19.7622 23.4389 19.8377 23.4894 19.919C23.5401 20.0007 23.5771 20.0772 23.6006 20.1417C23.6246 20.2077 23.6281 20.2428 23.6282 20.2475C23.6284 20.2495 23.6259 20.2063 23.6532 20.1407C23.6832 20.0683 23.7291 20.0183 23.7599 19.9947C23.7836 19.9765 23.7641 20.0003 23.6541 20.0283C23.5431 20.0567 23.3622 20.0833 23.0891 20.0833V22.5833C23.9112 22.5833 24.6886 22.4315 25.2781 21.9808C25.9379 21.4765 26.1589 20.7595 26.1247 20.1155C26.0936 19.5268 25.8584 18.9953 25.6136 18.6007C25.3656 18.201 25.0336 17.8227 24.6696 17.5577L23.1984 19.579ZM23.0891 20.0833H16.7499V22.5833H23.0891V20.0833ZM14.7499 3.985V1.33333H12.2499V3.985H14.7499ZM10.2499 22.5833H16.7499V20.0833H10.2499V22.5833ZM8.99987 21.3333C8.99987 23.8347 10.9849 25.9167 13.4999 25.9167V23.4167C12.4249 23.4167 11.4999 22.514 11.4999 21.3333H8.99987ZM13.4999 25.9167C16.0147 25.9167 17.9999 23.8347 17.9999 21.3333H15.4999C15.4999 22.514 14.5747 23.4167 13.4999 23.4167V25.9167Z" fill="#8A8A8A"/>
</svg>
