<svg width="45" height="45" viewBox="0 0 45 45" fill="none" xmlns="http://www.w3.org/2000/svg">
<path d="M9.375 2.34375C10.1516 2.34375 10.7812 2.97336 10.7812 3.75V4.6875C10.7812 6.49969 12.2503 7.96875 14.0625 7.96875H30.9375C32.7497 7.96875 34.2187 6.49969 34.2187 4.6875V3.75C34.2187 2.97336 34.8484 2.34375 35.625 2.34375C36.4016 2.34375 37.0312 2.97336 37.0312 3.75V4.6875C37.0312 8.05299 34.3029 10.7812 30.9375 10.7812H14.0625C10.697 10.7812 7.96875 8.05299 7.96875 4.6875V3.75C7.96875 2.97336 8.59836 2.34375 9.375 2.34375Z" fill="#1C274C"/>
<path fill-rule="evenodd" clip-rule="evenodd" d="M16.7775 12.6563H28.2225C29.9072 12.6562 31.3119 12.6562 32.4272 12.8061C33.6043 12.9644 34.6671 13.3125 35.5209 14.1665C36.375 15.0205 36.7232 16.0832 36.8814 17.2604C37.0314 18.3756 37.0313 19.7803 37.0313 21.465V23.535C37.0313 25.2197 37.0314 26.6244 36.8814 27.7397C36.7232 28.9168 36.375 29.9796 35.5209 30.8334C34.6671 31.6875 33.6043 32.0357 32.4272 32.1939C31.3119 32.3439 29.9072 32.3438 28.2227 32.3438H16.7775C15.0929 32.3438 13.688 32.3439 12.5729 32.1939C11.3957 32.0357 10.333 31.6875 9.47899 30.8334C8.62498 29.9796 8.27685 28.9168 8.11858 27.7397C7.96866 26.6244 7.9687 25.2197 7.96875 23.535V21.465C7.9687 19.7803 7.96866 18.3756 8.11858 17.2604C8.27685 16.0832 8.62498 15.0205 9.47899 14.1665C10.333 13.3125 11.3957 12.9644 12.5729 12.8061C13.6881 12.6562 15.0929 12.6562 16.7775 12.6563ZM12.9476 15.5935C12.0824 15.7098 11.7121 15.9109 11.4677 16.1552C11.2234 16.3996 11.0223 16.7699 10.906 17.6351C10.7843 18.5408 10.7813 19.755 10.7813 21.5625V23.4375C10.7813 25.245 10.7843 26.4593 10.906 27.3649C11.0223 28.2302 11.2234 28.6005 11.4677 28.8448C11.7121 29.0891 12.0824 29.2901 12.9476 29.4066C13.8533 29.5283 15.0675 29.5313 16.875 29.5313H28.125C29.9325 29.5313 31.1468 29.5283 32.0524 29.4066C32.9177 29.2901 33.288 29.0891 33.5323 28.8448C33.7766 28.6005 33.9776 28.2302 34.0941 27.3649C34.2158 26.4593 34.2188 25.245 34.2188 23.4375V21.5625C34.2188 19.755 34.2158 18.5408 34.0941 17.6351C33.9776 16.7699 33.7766 16.3996 33.5323 16.1552C33.288 15.9109 32.9177 15.7098 32.0524 15.5935C31.1468 15.4718 29.9325 15.4688 28.125 15.4688H16.875C15.0675 15.4688 13.8533 15.4718 12.9476 15.5935Z" fill="#1C274C"/>
<path d="M14.0625 34.2188C10.697 34.2188 7.96875 36.9471 7.96875 40.3125V41.25C7.96875 42.0266 8.59836 42.6562 9.375 42.6562C10.1516 42.6562 10.7812 42.0266 10.7812 41.25V40.3125C10.7812 38.5003 12.2503 37.0312 14.0625 37.0312H30.9375C32.7497 37.0312 34.2187 38.5003 34.2187 40.3125V41.25C34.2187 42.0266 34.8484 42.6562 35.625 42.6562C36.4016 42.6562 37.0312 42.0266 37.0312 41.25V40.3125C37.0312 36.9471 34.3029 34.2188 30.9375 34.2188H14.0625Z" fill="#1C274C"/>
</svg>
