<svg width="45" height="45" viewBox="0 0 45 45" fill="none" xmlns="http://www.w3.org/2000/svg">
<path d="M15 10.3125H30C33.1067 10.3125 35.625 7.79409 35.625 4.6875C35.625 4.16974 35.2052 3.75 34.6875 3.75H10.3125C9.79474 3.75 9.375 4.16974 9.375 4.6875C9.375 7.79409 11.8934 10.3125 15 10.3125Z" fill="#1ACEDA"/>
<path d="M9.375 21.5625C9.375 18.027 9.375 16.2592 10.4734 15.1609C11.5717 14.0625 13.3395 14.0625 16.875 14.0625H28.125C31.6605 14.0625 33.4282 14.0625 34.5266 15.1609C35.625 16.2592 35.625 18.027 35.625 21.5625V23.4375C35.625 26.973 35.625 28.7407 34.5266 29.8391C33.4282 30.9375 31.6605 30.9375 28.125 30.9375H16.875C13.3395 30.9375 11.5717 30.9375 10.4734 29.8391C9.375 28.7407 9.375 26.973 9.375 23.4375V21.5625Z" fill="#1ACEDA"/>
<path d="M30 34.6875H15C11.8934 34.6875 9.375 37.2058 9.375 40.3125C9.375 40.8302 9.79474 41.25 10.3125 41.25H34.6875C35.2052 41.25 35.625 40.8302 35.625 40.3125C35.625 37.2058 33.1067 34.6875 30 34.6875Z" fill="#1ACEDA"/>
</svg>
