<svg width="34" height="34" viewBox="0 0 34 34" fill="none" xmlns="http://www.w3.org/2000/svg">
<path fill-rule="evenodd" clip-rule="evenodd" d="M0.333252 17C0.333252 7.79526 7.79517 0.333344 16.9999 0.333344C26.2046 0.333344 33.6666 7.79526 33.6666 17C33.6666 26.2047 26.2046 33.6667 16.9999 33.6667C7.79517 33.6667 0.333252 26.2047 0.333252 17ZM11.9999 16.1667C11.9999 13.8655 13.8654 12 16.1666 12C18.4678 12 20.3333 13.8655 20.3333 16.1667C20.3333 18.4678 18.4678 20.3333 16.1666 20.3333C13.8654 20.3333 11.9999 18.4678 11.9999 16.1667ZM16.1666 8.66668C12.0245 8.66668 8.66658 12.0245 8.66658 16.1667C8.66658 20.3088 12.0245 23.6667 16.1666 23.6667C17.6341 23.6667 19.0033 23.2452 20.1594 22.5167L22.4881 24.8452C23.1389 25.496 24.1943 25.496 24.8451 24.8452C25.4959 24.1943 25.4959 23.139 24.8451 22.4882L22.5166 20.1595C23.2451 19.0033 23.6666 17.6342 23.6666 16.1667C23.6666 12.0245 20.3088 8.66668 16.1666 8.66668Z" fill="#C5C2C2"/>
</svg>
