<svg width="30" height="30" viewBox="0 0 30 30" fill="none" xmlns="http://www.w3.org/2000/svg">
<g clip-path="url(#clip0_137_783)">
<path fill-rule="evenodd" clip-rule="evenodd" d="M23.0769 27.6923C21.165 27.6923 19.6153 26.1427 19.6153 24.2308C19.6153 22.3188 21.165 20.7692 23.0769 20.7692C24.9888 20.7692 26.5384 22.3188 26.5384 24.2308C26.5384 26.1427 24.9888 27.6923 23.0769 27.6923ZM6.92304 18.4615C5.01112 18.4615 3.4615 16.9119 3.4615 15C3.4615 13.0892 5.01112 11.5385 6.92304 11.5385C8.83496 11.5385 10.3846 13.0892 10.3846 15C10.3846 16.9119 8.83496 18.4615 6.92304 18.4615ZM23.0769 2.30769C24.9888 2.30769 26.5384 3.85731 26.5384 5.76923C26.5384 7.68115 24.9888 9.23077 23.0769 9.23077C21.165 9.23077 19.6153 7.68115 19.6153 5.76923C19.6153 3.85731 21.165 2.30769 23.0769 2.30769ZM23.0769 18.4615C21.0346 18.4615 19.2519 19.5289 18.2261 21.1292L12.0473 17.5985C12.4465 16.8139 12.6923 15.9392 12.6923 15C12.6923 14.4196 12.5804 13.8704 12.4211 13.3419L18.8492 9.66924C19.9027 10.8115 21.4003 11.5385 23.0769 11.5385C26.2638 11.5385 28.8461 8.95615 28.8461 5.76923C28.8461 2.58231 26.2638 0 23.0769 0C19.89 0 17.3077 2.58231 17.3077 5.76923C17.3077 6.34962 17.4196 6.89883 17.5788 7.42845L11.1507 11.1C10.0973 9.95884 8.59958 9.23077 6.92304 9.23077C3.73612 9.23077 1.15381 11.8131 1.15381 15C1.15381 18.1869 3.73612 20.7692 6.92304 20.7692C8.23842 20.7692 9.43726 20.3123 10.4076 19.5715L10.3846 19.6154L17.3711 23.6077C17.348 23.8154 17.3077 24.0162 17.3077 24.2308C17.3077 27.4177 19.89 30 23.0769 30C26.2638 30 28.8461 27.4177 28.8461 24.2308C28.8461 21.0438 26.2638 18.4615 23.0769 18.4615Z" fill="#8A8A8A"/>
</g>
<defs>
<clipPath id="clip0_137_783">
<rect width="30" height="30" fill="white"/>
</clipPath>
</defs>
</svg>
