<svg width="30" height="30" viewBox="0 0 30 30" fill="none" xmlns="http://www.w3.org/2000/svg">
<g clip-path="url(#clip0_412_48)">
<path d="M14.6769 4.68057L5.22277 11.4348H1.52697C0.686013 11.4348 0 12.1208 0 12.9617V17.0382C0 17.8791 0.686013 18.5651 1.52697 18.5651H5.22277L14.6857 25.3193C15.3717 25.8106 15.925 25.523 15.925 24.682V5.31792C15.925 4.47697 15.3673 4.18924 14.6769 4.68057Z" fill="#1ACEDA"/>
<path d="M19.8068 4.74255C19.103 4.74255 18.532 5.31355 18.532 6.01726C18.532 6.72098 19.103 7.29197 19.8068 7.29197C24.0292 7.29197 27.4506 10.7134 27.4506 14.9358C27.4506 19.1583 24.0292 22.5796 19.8068 22.5796C19.103 22.5796 18.532 23.1506 18.532 23.8544C18.532 24.5581 19.103 25.1291 19.8068 25.1291C25.4367 25.1291 30 20.5657 30 14.9358C30 9.31026 25.4412 4.74255 19.8068 4.74255Z" fill="#1ACEDA"/>
<path d="M19.8068 18.1182C19.103 18.1182 18.532 18.6891 18.532 19.3928C18.532 20.0966 19.103 20.6675 19.8068 20.6675C22.9758 20.6675 25.5384 18.1004 25.5384 14.9358C25.5384 11.7711 22.9714 9.20404 19.8068 9.20404C19.103 9.20404 18.532 9.77498 18.532 10.4788C18.532 11.1825 19.103 11.7535 19.8068 11.7535C21.5638 11.7535 22.9935 13.1787 22.9935 14.9402C22.9935 16.7018 21.5683 18.1182 19.8068 18.1182Z" fill="#1ACEDA"/>
</g>
<defs>
<clipPath id="clip0_412_48">
<rect width="30" height="30" fill="white"/>
</clipPath>
</defs>
</svg>
