<svg width="30" height="29" viewBox="0 0 30 29" fill="none" xmlns="http://www.w3.org/2000/svg">
<path d="M16.8136 5.2193C16.8136 4.22481 15.612 3.72756 14.9085 4.43014L10.7181 8.62147C10.5521 8.78722 10.3552 8.91866 10.1384 9.00826C9.92169 9.09787 9.68942 9.1439 9.45488 9.14371H6.10092C5.15386 9.14371 4.24559 9.51993 3.57592 10.1896C2.90625 10.8593 2.53003 11.7675 2.53003 12.7146V16.2855C2.53003 17.2326 2.90625 18.1408 3.57592 18.8105C4.24559 19.4802 5.15386 19.8564 6.10092 19.8564H9.45488C9.68942 19.8562 9.92169 19.9022 10.1384 19.9918C10.3552 20.0814 10.5521 20.2129 10.7181 20.3786L14.9085 24.57C15.612 25.2725 16.8136 24.7753 16.8136 23.7808V5.2193ZM11.9804 9.88378L15.0281 6.83603V22.165L11.9804 19.1172C11.6488 18.7855 11.2551 18.5224 10.8217 18.3428C10.3884 18.1633 9.92393 18.0709 9.45488 18.0709H6.10092C5.62739 18.0709 5.17326 17.8828 4.83842 17.548C4.50358 17.2132 4.31548 16.759 4.31548 16.2855V12.7146C4.31548 12.2411 4.50358 11.7869 4.83842 11.4521C5.17326 11.1173 5.62739 10.9292 6.10092 10.9292H9.45488C9.92387 10.9293 10.3883 10.837 10.8216 10.6577C11.2549 10.4783 11.6487 10.2153 11.9804 9.88378ZM21.1201 8.63843C21.0542 8.54053 20.9696 8.45666 20.8711 8.39167C20.7727 8.32667 20.6623 8.28184 20.5464 8.25977C20.4305 8.2377 20.3113 8.23883 20.1959 8.26309C20.0804 8.28735 19.9709 8.33425 19.8736 8.4011C19.7764 8.46795 19.6934 8.5534 19.6294 8.65253C19.5654 8.75166 19.5217 8.86249 19.5008 8.97861C19.4799 9.09474 19.4822 9.21386 19.5076 9.32908C19.5331 9.4443 19.5811 9.55334 19.6489 9.64989C20.796 11.3193 21.3335 12.9315 21.3335 14.5001C21.3335 16.0695 20.796 17.6826 19.6489 19.3511C19.5811 19.4477 19.5331 19.5567 19.5076 19.6719C19.4822 19.7871 19.4799 19.9063 19.5008 20.0224C19.5217 20.1385 19.5654 20.2493 19.6294 20.3485C19.6934 20.4476 19.7764 20.5331 19.8736 20.5999C19.9709 20.6667 20.0804 20.7136 20.1959 20.7379C20.3113 20.7622 20.4305 20.7633 20.5464 20.7412C20.6623 20.7192 20.7727 20.6743 20.8711 20.6093C20.9696 20.5443 21.0542 20.4605 21.1201 20.3626C22.4279 18.4611 23.118 16.5024 23.118 14.5001C23.118 12.4986 22.4279 10.5408 21.1201 8.63843ZM23.6786 4.92649C23.5071 4.76312 23.2777 4.67459 23.0409 4.68037C22.8041 4.68614 22.5792 4.78575 22.4159 4.95729C22.2525 5.12883 22.164 5.35823 22.1698 5.59505C22.1755 5.83186 22.2751 6.05668 22.4467 6.22005C24.5776 8.24921 25.6855 11.3425 25.6855 14.5001C25.6855 17.6585 24.5776 20.7518 22.4467 22.7809C22.3617 22.8618 22.2936 22.9587 22.2461 23.0659C22.1985 23.1731 22.1726 23.2887 22.1698 23.4059C22.1669 23.5232 22.1872 23.6399 22.2294 23.7493C22.2716 23.8587 22.335 23.9588 22.4159 24.0437C22.4968 24.1286 22.5936 24.1968 22.7008 24.2443C22.8081 24.2918 22.9236 24.3178 23.0409 24.3206C23.1581 24.3235 23.2748 24.3032 23.3842 24.261C23.4937 24.2188 23.5937 24.1554 23.6786 24.0745C26.2345 21.6401 27.47 18.0379 27.47 14.5001C27.47 10.9631 26.2345 7.36095 23.6786 4.92649Z" fill="white"/>
</svg>
