<svg width="10" height="10" viewBox="0 0 10 10" fill="none" xmlns="http://www.w3.org/2000/svg">
<g clip-path="url(#clip0_161_54)">
<path d="M8.30506 3.11198L5.32922 0.136218C5.14766 -0.045345 4.8532 -0.045345 4.67163 0.136218L1.6958 3.11205C1.51416 3.29365 1.51416 3.58804 1.6958 3.76964C1.78652 3.8604 1.90559 3.90582 2.02459 3.90582C2.14359 3.90582 2.26255 3.8604 2.35338 3.76964L4.53545 1.58757V9.53506C4.53545 9.79184 4.74365 10 5.00043 10C5.25713 10 5.4654 9.79184 5.4654 9.53506V1.58753L7.64747 3.76953C7.82911 3.95109 8.12349 3.95109 8.30506 3.76953C8.48666 3.58796 8.48666 3.29358 8.30506 3.11198Z" fill="white"/>
</g>
<defs>
<clipPath id="clip0_161_54">
<rect width="10" height="10" fill="white"/>
</clipPath>
</defs>
</svg>
